<?xml version="1.0" encoding="utf-8"?>
<!-- Generator: Adobe Illustrator 16.0.3, SVG Export Plug-In . SVG Version: 6.00 Build 0)  -->
<!DOCTYPE svg PUBLIC "-//W3C//DTD SVG 1.1//EN" "http://www.w3.org/Graphics/SVG/1.1/DTD/svg11.dtd">
<svg version="1.1" id="Capa_1" xmlns="http://www.w3.org/2000/svg" xmlns:xlink="http://www.w3.org/1999/xlink" x="0px" y="0px"
	 width="206.5px" height="90.564px" viewBox="-17.375 -30.435 206.5 90.564" enable-background="new -17.375 -30.435 206.5 90.564"
	 xml:space="preserve">
<polygon fill="#10495E" points="30.751,22.779 31.011,22.424 30.751,22.248 "/>
<path fill="#10495E" d="M29.023-20.896c-5.243-6.359-11.562-9.539-18.968-9.539c-7.404,0-13.725,3.18-18.965,9.539
	c-5.24,6.361-7.858,14.032-7.858,23.02c0,8.987,2.618,16.662,7.858,23.02c5.24,6.362,11.562,9.539,18.967,9.539V21.661
	c-4.436,0-8.227-1.912-11.374-5.73c-1.788-2.172-3.075-4.602-3.863-7.293h41.579c0.32-2.084,0.483-4.255,0.483-6.513
	C36.882-6.864,34.26-14.535,29.023-20.896 M-5.18-4.391c0.788-2.689,2.076-5.121,3.863-7.292c3.147-3.821,6.938-5.731,11.374-5.731
	c4.435,0,8.227,1.91,11.374,5.731c1.789,2.17,3.076,4.603,3.862,7.292H-5.18z"/>
<path fill="#99989D" d="M66.824,13.397l9.228,6.704c-1.144,2.214-2.503,4.28-4.077,6.19c-5.259,6.378-11.588,9.568-18.991,9.568
	c-7.405,0-13.728-3.173-18.967-9.537c-5.24-6.359-7.859-14.035-7.859-23.021s2.619-16.659,7.859-23.021
	c5.239-6.355,11.563-9.539,18.967-9.539c7.403,0,13.732,3.167,18.991,9.506c1.574,1.954,2.933,4.038,4.077,6.252l-9.228,6.707
	c-0.679-1.303-1.501-2.542-2.467-3.711c-3.148-3.819-6.939-5.729-11.373-5.729c-4.435,0-8.227,1.91-11.375,5.729
	c-3.146,3.821-4.722,8.421-4.722,13.806c0,5.383,1.575,9.984,4.722,13.805c3.148,3.821,6.939,5.73,11.375,5.73
	c4.435,0,8.226-1.909,11.373-5.73C65.323,15.937,66.146,14.698,66.824,13.397"/>
<path fill="#99989D" d="M106.034,35.86c-7.405,0-13.727-3.173-18.969-9.537c-5.238-6.359-7.856-14.034-7.856-23.021
	c0-8.986,2.618-16.658,7.856-23.021c5.242-6.355,11.563-9.539,18.969-9.539c7.403,0,13.723,3.18,18.966,9.539
	c5.237,6.363,7.859,14.035,7.859,23.021c0,8.987-2.622,16.662-7.859,23.021C119.757,32.683,113.437,35.86,106.034,35.86
	 M106.034-16.233c-4.436,0-8.229,1.909-11.377,5.73c-3.146,3.82-4.717,8.421-4.717,13.805c0,5.382,1.571,9.984,4.717,13.805
	c3.149,3.821,6.941,5.731,11.377,5.731c4.433,0,8.227-1.91,11.371-5.731c3.15-3.821,4.722-8.423,4.722-13.805
	c0-5.383-1.571-9.984-4.722-13.805C114.26-14.326,110.466-16.233,106.034-16.233"/>
<path fill="#99989D" d="M178.396,3.302c0-5.385-1.575-9.984-4.724-13.807c-3.146-3.819-6.937-5.729-11.372-5.729
	c-4.437,0-8.226,1.909-11.375,5.729c-3.146,3.822-4.722,8.422-4.722,13.807V35.86h-10.73v-65.117h10.73v6.446
	c4.617-4.298,9.98-6.446,16.097-6.446c7.403,0,13.724,3.183,18.965,9.539c5.239,6.363,7.859,14.035,7.859,23.021V35.86h-10.729
	V3.302z"/>
<path fill="#1F5C6F" d="M36.882,2.114c0-7.163-1.669-13.489-4.989-18.986c-3.818,5.765-5.734,12.485-5.734,20.167
	c0,1.835,0.115,3.614,0.333,5.34h9.907C36.72,6.549,36.882,4.373,36.882,2.114"/>
<path fill="#10495E" d="M22.928,28.115c0,3.626-2.424,6.564-5.411,6.564c-2.988,0-5.41-2.938-5.41-6.564
	c0-3.626,2.422-6.566,5.41-6.566S22.928,24.488,22.928,28.115"/>
<path fill="#99989D" d="M-8.091,49.236c-0.757-0.818-1.793-1.258-2.787-1.258c-2.368,0-4.173,2.394-4.173,5.232
	c0,2.807,1.792,5.2,4.147,5.2c1.034,0,2.028-0.474,2.815-1.324v1.89c-0.813,0.576-1.85,0.9-2.774,0.9
	c-3.01,0-5.503-2.906-5.503-6.613c0-3.791,2.507-6.746,5.616-6.746c0.924,0,1.862,0.27,2.663,0.863v1.855H-8.091z"/>
<path fill="#99989D" d="M4.873,53.195c0,3.805-2.479,6.678-5.532,6.678c-3.052,0-5.533-2.871-5.533-6.678
	c0-3.674,2.508-6.68,5.533-6.68C2.366,46.515,4.873,49.521,4.873,53.195 M3.556,53.195c0-2.825-1.736-5.186-4.216-5.186
	c-2.479,0-4.216,2.36-4.216,5.186c0,2.922,1.935,5.181,4.216,5.181C1.625,58.378,3.556,56.117,3.556,53.195"/>
<polygon fill="#99989D" points="7.094,46.172 15.022,56.255 15.022,46.786 16.336,46.786 16.336,60.129 8.412,50.049 8.412,59.601 
	7.094,59.601 "/>
<path fill="#99989D" d="M23.98,49.218c-0.392-0.801-0.897-1.209-1.694-1.209c-0.84,0-1.765,0.697-1.765,1.818
	c0,1.003,0.812,1.532,1.47,1.836l0.758,0.354c1.499,0.72,2.618,1.719,2.618,3.862c0,2.328-1.484,3.992-3.376,3.992
	c-1.708,0-3.039-1.528-3.263-3.588l1.332-0.339c-0.015,1.414,0.911,2.43,2.045,2.43c1.135,0,1.947-1.155,1.947-2.496
	c0-1.38-0.911-1.975-1.82-2.432l-0.729-0.375c-1.205-0.626-2.296-1.461-2.296-3.247c0-2.072,1.513-3.311,3.108-3.311
	c1.176,0,2.144,0.694,2.717,1.932L23.98,49.218z"/>
<polygon fill="#99989D" points="30.727,59.601 29.411,59.601 29.411,48.247 26.904,48.247 26.904,46.787 33.236,46.787 
	33.236,48.247 30.727,48.247 "/>
<path fill="#99989D" d="M41.915,59.601h-1.596l-3.111-5.42h-0.544v5.42h-1.316V46.784h1.596c0.939,0,1.948,0.021,2.788,0.597
	c0.882,0.629,1.386,1.838,1.386,3.059c0,1.839-1.008,3.37-2.535,3.586L41.915,59.601z M36.663,52.854h0.42
	c1.345,0,2.801-0.307,2.801-2.347c0-2.004-1.569-2.292-2.872-2.292h-0.35V52.854z"/>
<path fill="#99989D" d="M45.161,46.787v7.564c0,2.091,0.519,4.027,2.549,4.027c2.03,0,2.548-1.937,2.548-4.027v-7.564h1.317v8.11
	c0,2.82-1.442,4.979-3.865,4.979c-2.423,0-3.867-2.159-3.867-4.979v-8.11H45.161z"/>
<rect x="54.428" y="46.786" fill="#99989D" width="1.317" height="12.817"/>
<polygon fill="#99989D" points="60.589,51.137 60.561,51.137 59.328,59.601 57.969,59.601 60.125,46.241 63.754,56.338 
	67.38,46.241 69.538,59.601 68.179,59.601 66.948,51.137 66.919,51.137 63.754,59.873 "/>
<path fill="#99989D" d="M82.11,53.195c0,3.805-2.478,6.678-5.53,6.678c-3.054,0-5.534-2.871-5.534-6.678
	c0-3.674,2.508-6.68,5.534-6.68C79.603,46.515,82.11,49.521,82.11,53.195 M80.793,53.195c0-2.825-1.736-5.186-4.213-5.186
	c-2.48,0-4.216,2.36-4.216,5.186c0,2.922,1.934,5.181,4.216,5.181C78.862,58.375,80.793,56.117,80.793,53.195"/>
<path fill="#99989D" d="M89.15,49.218c-0.393-0.801-0.897-1.209-1.694-1.209c-0.844,0-1.766,0.697-1.766,1.818
	c0,1.003,0.813,1.532,1.472,1.836l0.755,0.354c1.499,0.72,2.617,1.719,2.617,3.862c0,2.328-1.483,3.992-3.372,3.992
	c-1.709,0-3.041-1.528-3.263-3.588l1.33-0.339c-0.014,1.414,0.911,2.43,2.044,2.43c1.135,0,1.946-1.155,1.946-2.496
	c0-1.38-0.908-1.975-1.819-2.432l-0.729-0.375c-1.205-0.626-2.296-1.461-2.296-3.247c0-2.072,1.511-3.311,3.109-3.311
	c1.176,0,2.142,0.694,2.714,1.932L89.15,49.218z"/>
<polygon fill="#99989D" points="101.021,59.601 99.703,59.601 99.703,48.247 97.196,48.247 97.196,46.787 103.526,46.787 
	103.526,48.247 101.021,48.247 "/>
<path fill="#99989D" d="M106.772,46.787v7.564c0,2.091,0.519,4.027,2.55,4.027c2.029,0,2.547-1.937,2.547-4.027v-7.564h1.318v8.109
	c0,2.821-1.443,4.98-3.867,4.98s-3.866-2.159-3.866-4.98v-8.109H106.772z"/>
<path fill="#99989D" d="M120.776,49.218c-0.391-0.801-0.897-1.209-1.696-1.209c-0.841,0-1.764,0.697-1.764,1.818
	c0,1.003,0.812,1.532,1.467,1.836l0.758,0.354c1.498,0.72,2.617,1.719,2.617,3.862c0,2.328-1.483,3.992-3.375,3.992
	c-1.707,0-3.037-1.528-3.26-3.588l1.331-0.339c-0.016,1.414,0.907,2.43,2.046,2.43c1.131,0,1.943-1.155,1.943-2.496
	c0-1.38-0.91-1.975-1.82-2.432l-0.726-0.375c-1.206-0.626-2.299-1.461-2.299-3.247c0-2.072,1.512-3.311,3.109-3.311
	c1.176,0,2.142,0.694,2.716,1.932L120.776,49.218z"/>
<path fill="#99989D" d="M134.496,49.218c-0.393-0.801-0.898-1.209-1.697-1.209c-0.839,0-1.765,0.697-1.765,1.818
	c0,1.003,0.813,1.532,1.471,1.836l0.757,0.354c1.499,0.72,2.62,1.719,2.62,3.862c0,2.328-1.487,3.992-3.377,3.992
	c-1.708,0-3.039-1.528-3.263-3.588l1.33-0.339c-0.013,1.414,0.908,2.43,2.046,2.43c1.134,0,1.948-1.155,1.948-2.496
	c0-1.38-0.912-1.975-1.822-2.432l-0.729-0.375c-1.204-0.626-2.297-1.461-2.297-3.247c0-2.072,1.514-3.311,3.109-3.311
	c1.175,0,2.142,0.694,2.717,1.932L134.496,49.218z"/>
<path fill="#99989D" d="M139.531,46.787v7.564c0,2.091,0.52,4.027,2.55,4.027s2.548-1.937,2.548-4.027v-7.564h1.316v8.109
	c0,2.821-1.441,4.98-3.866,4.98c-2.423,0-3.867-2.159-3.867-4.98v-8.109H139.531z"/>
<polygon fill="#99989D" points="148.842,46.787 154.515,46.787 154.515,48.247 150.159,48.247 150.159,51.834 154.388,51.834 
	154.388,53.295 150.159,53.295 150.159,58.142 154.515,58.142 154.515,59.601 148.842,59.601 "/>
<path fill="#99989D" d="M157.09,46.172l7.924,10.08v-9.467h1.315v13.341l-7.923-10.078v9.553h-1.316V46.172z M159.035,44.745
	l0.041-0.085c0.38-0.66,0.771-1.292,1.514-1.292c0.475,0,0.881,0.207,1.246,0.443c0.364,0.239,0.702,0.46,1.009,0.46
	c0.403,0,0.699-0.426,0.896-0.815l0.659,0.662c-0.324,0.798-0.884,1.394-1.654,1.394c-0.393,0-0.785-0.224-1.164-0.444
	c-0.363-0.202-0.727-0.422-1.092-0.422c-0.35,0-0.658,0.422-0.796,0.781L159.035,44.745z"/>
<path fill="#99989D" d="M179.604,53.195c0,3.805-2.479,6.678-5.534,6.678c-3.05,0-5.529-2.871-5.529-6.678
	c0-3.674,2.509-6.68,5.529-6.68C177.097,46.515,179.604,49.521,179.604,53.195 M178.286,53.195c0-2.825-1.736-5.186-4.218-5.186
	c-2.478,0-4.216,2.36-4.216,5.186c0,2.922,1.935,5.181,4.216,5.181C176.356,58.378,178.286,56.117,178.286,53.195"/>
<path fill="#99989D" d="M186.642,49.218c-0.391-0.801-0.895-1.209-1.692-1.209c-0.843,0-1.767,0.697-1.767,1.818
	c0,1.003,0.812,1.532,1.47,1.836l0.756,0.354c1.501,0.72,2.62,1.719,2.62,3.862c0,2.328-1.484,3.992-3.376,3.992
	c-1.708,0-3.038-1.528-3.265-3.588l1.333-0.339c-0.015,1.414,0.911,2.43,2.044,2.43c1.136,0,1.947-1.155,1.947-2.496
	c0-1.38-0.91-1.975-1.819-2.432l-0.729-0.375c-1.206-0.626-2.298-1.461-2.298-3.247c0-2.072,1.511-3.311,3.108-3.311
	c1.179,0,2.144,0.694,2.718,1.932L186.642,49.218z"/>
<rect x="52.868" y="46.787" fill="#99989D" width="4.503" height="1.404"/>
<rect x="52.868" y="58.2" fill="#99989D" width="4.503" height="1.403"/>
</svg>
